<svg id="elVGYxoPE421" xmlns="http://www.w3.org/2000/svg" xmlns:xlink="http://www.w3.org/1999/xlink" viewBox="500 0 1920 1080" shape-rendering="geometricPrecision" text-rendering="geometricPrecision"><g transform="matrix(1.865743 0 0 1.865743-839.337891-460.193818)"><g><rect width="203.514645" height="527.531381" rx="25" ry="25" transform="matrix(0 0.729373-1 0 1242.76569 464.840348)" fill="#c1a354" stroke="#000" stroke-width="20"/><rect width="203.514645" height="527.531381" rx="25" ry="25" transform="matrix(.729373 0 0 1 909.9591 275.293701)" fill="#c1a354" stroke="#000" stroke-width="20"/><rect width="203.514645" height="527.531381" rx="25" ry="25" transform="matrix(0 0.729373-1 0 1242.76569 464.840348)" fill="#c1a354" stroke-width="10"/><rect width="203.514645" height="527.531381" rx="25" ry="25" transform="matrix(.729373 0 0 1 909.9591 275.293701)" fill="#c1a354" stroke-width="10"/></g><g><rect width="203.514645" height="527.531381" rx="25" ry="25" transform="matrix(0 0.729373-1 0 1223.76569 449.840348)" fill="#fcd920" stroke="#000" stroke-width="20"/><rect width="203.514645" height="527.531381" rx="25" ry="25" transform="matrix(.729373 0 0 1 890.9591 260.293701)" fill="#fcd920" stroke="#000" stroke-width="20"/><rect width="203.514645" height="527.531381" rx="25" ry="25" transform="matrix(0 0.729373-1 0 1223.76569 449.840348)" fill="#fcd920" stroke-width="10"/><rect width="203.514645" height="527.531381" rx="25" ry="25" transform="matrix(.729373 0 0 1 890.9591 260.293701)" fill="#fcd920" stroke-width="10"/></g></g></svg>